<svg width="229" height="170" viewBox="0 0 229 170" fill="none" xmlns="http://www.w3.org/2000/svg">
<g filter="url(#filter0_di_22_17)">
<path d="M206 100.627C176.63 65.5918 171.334 38.6648 181.708 15.0373C128.2 24.0308 102.259 31.0917 62.677 11C64.096 36.7291 56.0184 53.0409 23 86.0932C54.0128 79.2431 70.1065 73.2388 90.208 48.1429C96.3637 96.1432 112.674 115.298 155.796 141C138.374 102.475 132.596 81.8241 135.553 48.1429C155.656 79.972 172.445 89.3755 206 100.627Z" fill="#FFE7A6"/>
<path d="M206 100.627C176.63 65.5918 171.334 38.6648 181.708 15.0373C128.2 24.0308 102.259 31.0917 62.677 11C64.096 36.7291 56.0184 53.0409 23 86.0932C54.0128 79.2431 70.1065 73.2388 90.208 48.1429C96.3637 96.1432 112.674 115.298 155.796 141C138.374 102.475 132.596 81.8241 135.553 48.1429C155.656 79.972 172.445 89.3755 206 100.627Z" stroke="black" stroke-width="12"/>
</g>
<defs>
<filter id="filter0_di_22_17" x="0.241699" y="0.939484" width="228.029" height="168.996" filterUnits="userSpaceOnUse" color-interpolation-filters="sRGB">
<feFlood flood-opacity="0" result="BackgroundImageFix"/>
<feColorMatrix in="SourceAlpha" type="matrix" values="0 0 0 0 0 0 0 0 0 0 0 0 0 0 0 0 0 0 127 0" result="hardAlpha"/>
<feOffset dy="10"/>
<feGaussianBlur stdDeviation="2"/>
<feComposite in2="hardAlpha" operator="out"/>
<feColorMatrix type="matrix" values="0 0 0 0 0 0 0 0 0 0 0 0 0 0 0 0 0 0 0.25 0"/>
<feBlend mode="normal" in2="BackgroundImageFix" result="effect1_dropShadow_22_17"/>
<feBlend mode="normal" in="SourceGraphic" in2="effect1_dropShadow_22_17" result="shape"/>
<feColorMatrix in="SourceAlpha" type="matrix" values="0 0 0 0 0 0 0 0 0 0 0 0 0 0 0 0 0 0 127 0" result="hardAlpha"/>
<feOffset dx="-15"/>
<feGaussianBlur stdDeviation="1"/>
<feComposite in2="hardAlpha" operator="arithmetic" k2="-1" k3="1"/>
<feColorMatrix type="matrix" values="0 0 0 0 0 0 0 0 0 0 0 0 0 0 0 0 0 0 0.25 0"/>
<feBlend mode="normal" in2="shape" result="effect2_innerShadow_22_17"/>
</filter>
</defs>
</svg>
